<svg id="Layer_1" viewBox="0 0 24 24" xmlns="http://www.w3.org/2000/svg" data-name="Layer 1"><path d="m23 2.5c0-.829-.672-1.5-1.5-1.5s-1.5.671-1.5 1.5c0 1.132-.181 1.435-1.111 1.489-.907-.03-1.744-.403-2.704-.843-1.175-.538-2.506-1.146-4.185-1.146s-3.01.609-4.185 1.146c-.96.44-1.797.813-2.704.843-.93-.054-1.111-.357-1.111-1.489 0-.829-.672-1.5-1.5-1.5s-1.5.671-1.5 1.5c0 2.428 1.074 3.895 3.097 4.34-.648 1.785-1.055 3.595-1.097 5.133-.01.381.198.735.536.913.214.112.467.235.744.37 1.178.572 2.922 1.42 3.723 2.544.061 3.02 1.007 5.892 1.049 6.017.083.251.264.459.501.578.124.062 1.246.605 2.447.605s2.323-.544 2.447-.605c.219-.109.391-.296.481-.523.042-.106 1.016-2.579 1.069-6.072.802-1.123 2.545-1.971 3.722-2.543.277-.135.53-.258.744-.37.338-.177.546-.531.536-.913-.042-1.537-.449-3.348-1.097-5.133 2.023-.445 3.097-1.912 3.097-4.34zm-14.5 8.5c-.828 0-1.5-.672-1.5-1.5s.672-1.5 1.5-1.5 1.5.672 1.5 1.5-.672 1.5-1.5 1.5zm7 0c-.828 0-1.5-.672-1.5-1.5s.672-1.5 1.5-1.5 1.5.672 1.5 1.5-.672 1.5-1.5 1.5z"/></svg>